<?xml version="1.0" encoding="UTF-8" standalone="no"?>
<!-- Created with Inkscape (http://www.inkscape.org/) -->

<svg
   width="160.368mm"
   height="160.368mm"
   viewBox="0 0 160.36799 160.36799"
   version="1.1"
   id="svg5"
   xml:space="preserve"
   inkscape:version="1.3.2 (091e20ef0f, 2023-11-25)"
   sodipodi:docname="favicon.svg"
   inkscape:export-filename="favicon.png"
   inkscape:export-xdpi="8.4875603"
   inkscape:export-ydpi="8.4875603"
   xmlns:inkscape="http://www.inkscape.org/namespaces/inkscape"
   xmlns:sodipodi="http://sodipodi.sourceforge.net/DTD/sodipodi-0.dtd"
   xmlns="http://www.w3.org/2000/svg"
   xmlns:svg="http://www.w3.org/2000/svg"><sodipodi:namedview
     id="namedview7"
     pagecolor="#ffffff"
     bordercolor="#666666"
     borderopacity="1.0"
     inkscape:showpageshadow="2"
     inkscape:pageopacity="0.0"
     inkscape:pagecheckerboard="0"
     inkscape:deskcolor="#d1d1d1"
     inkscape:document-units="mm"
     showgrid="false"
     inkscape:zoom="0.58416867"
     inkscape:cx="262.76657"
     inkscape:cy="478.4577"
     inkscape:window-width="1920"
     inkscape:window-height="1011"
     inkscape:window-x="0"
     inkscape:window-y="0"
     inkscape:window-maximized="1"
     inkscape:current-layer="layer1" /><defs
     id="defs2" /><g
     inkscape:label="Calque 1"
     inkscape:groupmode="layer"
     id="layer1"
     transform="translate(-14.567253,-24.820276)"><path
       sodipodi:type="star"
       style="fill:#00c0ae;fill-opacity:1;stroke-width:1.05833;stroke-linecap:round;stroke-linejoin:round;paint-order:stroke markers fill"
       id="path1"
       inkscape:flatsided="true"
       sodipodi:sides="6"
       sodipodi:cx="22.675117"
       sodipodi:cy="23.410671"
       sodipodi:r1="321.02225"
       sodipodi:r2="278.0134"
       sodipodi:arg1="0.52359878"
       sodipodi:arg2="1.0471976"
       inkscape:rounded="0"
       inkscape:randomized="0"
       d="M 300.68854,183.9218 22.675116,344.43292 -255.3383,183.92179 l 0,-321.02224 278.013419,-160.51113 278.013421,160.51113 z"
       transform="matrix(0.24263823,0,0,0.24263823,89.249401,99.32395)" /><path
       sodipodi:type="star"
       style="fill:#009688;fill-opacity:1;stroke-width:1.05833;stroke-linecap:round;stroke-linejoin:round;paint-order:stroke markers fill"
       id="path2"
       inkscape:flatsided="true"
       sodipodi:sides="6"
       sodipodi:cx="22.675117"
       sodipodi:cy="23.410671"
       sodipodi:r1="321.02225"
       sodipodi:r2="278.0134"
       sodipodi:arg1="0.52359878"
       sodipodi:arg2="1.0471976"
       inkscape:rounded="0"
       inkscape:randomized="0"
       d="M 300.68854,183.9218 22.675116,344.43292 -255.3383,183.92179 l 0,-321.02224 278.013419,-160.51113 278.013421,160.51113 z"
       transform="matrix(0.21979879,0,0,0.21979879,87.555291,98.32658)" /><path
       style="font-size:95.6377px;line-height:110%;font-family:Sans;-inkscape-font-specification:'Sans, ';text-align:center;letter-spacing:0px;word-spacing:0px;text-anchor:middle;fill:#ffffff;stroke-width:8.95669px"
       d="m 96.739638,147.51277 q -6.448821,0 -11.500399,-1.82716 -5.051579,-1.82717 -7.953549,-6.87875 -2.901971,-5.05157 -2.901971,-14.72482 0,-6.66378 1.289765,-14.40236 1.397246,-7.84608 4.084256,-16.014587 2.79449,-8.168509 6.986224,-16.122058 4.191737,-8.061031 9.780711,-15.047256 l 7.308665,4.621658 q -6.986221,9.673235 -11.392914,19.668911 -4.299216,9.995679 -6.341344,19.453952 -1.934648,9.45827 -1.934648,17.73426 0,6.98624 1.719688,10.10316 1.719686,3.00944 4.836618,3.76182 3.224411,0.75236 7.416143,0.75236 4.299217,0 8.920877,-0.75236 4.72914,-0.85985 8.06102,-2.04213 v 9.13584 q -3.97677,1.18227 -8.70591,1.82716 -4.72914,0.75236 -9.673232,0.75236 z"
       id="text2"
       aria-label="ð‘–" /></g></svg>
